<svg width="73" height="73" viewBox="0 0 73 73" fill="none" xmlns="http://www.w3.org/2000/svg">
      <circle cx="36.8057" cy="36.447" r="36" fill="#FCF3E2" />
      <path fill-rule="evenodd" clip-rule="evenodd" d="M37.9596 56.3011C34.6049 56.3409 31.2603 55.9272 28.0166 55.0711C26.5564 54.7176 25.1649 54.1245 23.8986 53.3161C23.3959 52.9566 22.9356 52.5413 22.5266 52.0781C22.1424 51.6302 21.9533 51.0472 22.0015 50.4591C22.0999 45.2213 25.7553 40.7249 30.8626 39.5591C31.2714 39.429 31.7179 39.5035 32.0625 39.7591C33.6718 40.8603 35.5758 41.4503 37.5257 41.4521C39.1654 41.5553 40.8066 41.2756 42.3196 40.6351C42.9826 40.3261 43.5976 39.9141 44.2396 39.5591C44.3484 39.4924 44.4752 39.461 44.6026 39.4692C49.1146 40.2728 52.7007 43.7109 53.6936 48.1851C53.8255 48.9083 53.9183 49.638 53.9716 50.3712C54.0326 51.1483 53.7349 51.9108 53.1636 52.4412C52.3105 53.2643 51.2952 53.9008 50.1826 54.3101C48.357 55.0377 46.4507 55.5436 44.5046 55.8171C42.3399 56.157 40.1508 56.3189 37.9596 56.3011L37.9596 56.3011Z" fill="#E9AE24" />
      <path fill-rule="evenodd" clip-rule="evenodd" d="M27.2818 22.2111C27.2678 22.4711 27.2567 22.6431 27.5147 22.7711C27.7045 22.8694 27.8285 23.0604 27.841 23.2737C27.8535 23.4871 27.7527 23.6913 27.5757 23.8111C27.4502 23.8806 27.3817 24.0214 27.4047 24.1631C27.5567 26.1821 27.6847 28.2041 27.8607 30.2211C27.8729 31.0935 27.6951 31.9582 27.3397 32.755C27.3187 32.8161 27.2397 32.8551 27.1877 32.9071C27.1437 32.8601 27.0767 32.8211 27.0577 32.7661C26.6905 31.9226 26.5172 31.0074 26.5507 30.088C26.7317 28.3251 26.8127 26.5511 26.9357 24.7821C26.9457 24.6371 26.9657 24.4931 26.9777 24.3481C27.0387 24.1249 26.9541 23.8874 26.7658 23.7531C26.6093 23.6228 26.5309 23.4211 26.5586 23.2194C26.5862 23.0176 26.7159 22.8444 26.9018 22.7611C27.1627 22.6451 27.1197 22.4361 27.1317 22.2611C27.1317 22.1891 26.9657 22.0881 26.8587 22.0321C26.6197 21.9061 26.3587 21.8221 26.1287 21.6801C25.7467 21.4401 25.7437 21.0801 26.1347 20.8551C26.4914 20.6628 26.8586 20.4909 27.2346 20.3401C30.3307 18.9974 33.4276 17.6567 36.5257 16.3181C37.4466 15.8993 38.5031 15.8972 39.4257 16.3121C42.7984 17.7701 46.1703 19.2287 49.5416 20.6881C49.8096 20.8041 50.1216 20.9261 50.1177 21.2701C50.1138 21.6141 49.8037 21.7291 49.5347 21.8461C48.4527 22.3161 47.3717 22.7871 46.2857 23.2461C46.1167 23.2928 46.0075 23.4561 46.0286 23.6301C46.0416 24.5801 46.0097 25.5301 46.0467 26.4801C46.0983 26.8617 46.1842 27.2379 46.3036 27.6041C46.8667 30.1436 46.3767 32.8029 44.9456 34.9751C43.9332 36.7535 42.3407 38.1303 40.4346 38.8751C38.0449 39.8105 35.3333 39.3383 33.4006 37.6501C31.2439 35.9619 29.8421 33.4896 29.5006 30.7721C29.3167 29.4809 29.437 28.1646 29.8516 26.9281C29.9049 26.7636 29.9332 26.592 29.9356 26.4191C29.9436 25.4881 29.9356 24.5571 29.9436 23.6261C29.9694 23.4623 29.8697 23.3048 29.7106 23.2581C28.9157 22.9261 28.1217 22.5731 27.2818 22.2111Z" fill="#E9AE24" />
</svg>